<svg id="レイヤー_1" data-name="レイヤー 1" xmlns="http://www.w3.org/2000/svg" viewBox="0 0 492.4583 151.6025"><defs><style>.cls-1{fill:#fae5dd;}.cls-2{fill:none;stroke:#231815;stroke-miterlimit:10;stroke-width:4px;}.cls-3{fill:#231815;}</style></defs><path class="cls-1" d="M377.9917,173.2005c11.4614,16.8773,37.1551,20.9077,50.8207,9.2573,14.3582,12.2172,48.05,11.7134,58.9444-6.99,4.5971,16.1846,36.0216,17.8219,41.1855,4.1564,8.4387,15.6177,26.9532,8.7535,45.027-3.0858-5.6677,23.3637,1.4484,19.4592,21.2855,14.3583-7.9348,15.24-.63,38.1627,23.7415,43.5156-19.3962,10.8946-35.2029,22.1041-21.6633,38.5405-16.94,1.7-22.9229,15.9327-.8187,31.3615-24.6231-8.1867-57.37-12.7209-64.1714-.2519-9.6351-7.368-31.7393-12.469-33.6285,3.9044-11.5874-14.6731-26.2605-16.8772-36.4625-1.0705-6.2345-14.1064-47.0421-16.5624-53.0247,7.7459h0c-13.4767-21.7263-47.0422-18.8925-75.6328-1.8893-14.1693-11.7763-30.102-21.2855-53.4026,1.3225-3.9675-16.7513-43.5786-17.0662-54.0324-3.0228-2.0782-13.4136-31.6764-9.5722-50.128.63,9.7611-17.4441,4.5972-29.22-8.9424-29.4723,11.0206-13.98,3.2117-26.3234-26.6383-30.8576,23.3636-9.7611,36.3994-22.1042,18.2-37.6589,22.671,7.0531,31.6764-19.4593,12.658-35.3919,19.0184,15.9326,44.46,17.1921,48.3646,3.5266,10.3909,11.7133,39.4223,10.1389,42.8229-6.5494,10.7687,16.3105,52.1432,13.8545,61.5264,3.8415C332.7128,189.7,366.6562,194.8639,377.9917,173.2005Z" transform="translate(-126.538 -163.0395)"/><path class="cls-2" d="M371.4348,166.9275c11.4614,16.8773,37.1551,20.9077,50.8207,9.2573,14.3582,12.2171,48.05,11.7133,58.9444-6.99,4.5971,16.1845,36.0216,17.8219,41.1855,4.1563,8.4387,15.6178,26.9532,8.7535,45.027-3.0857-5.6677,23.3636,1.4484,19.4592,21.2855,14.3582-7.9348,15.24-.63,38.1628,23.7415,43.5156-19.3962,10.8947-35.2029,22.1042-21.6634,38.5406-16.94,1.7-22.9228,15.9326-.8186,31.3615-24.6232-8.1868-57.37-12.7209-64.1714-.2519-9.6351-7.3681-31.7393-12.469-33.6285,3.9044-11.5874-14.6731-26.2605-16.8772-36.4625-1.0706-6.2345-14.1063-47.0422-16.5623-53.0248,7.7459h0c-13.4766-21.7263-47.0422-18.8924-75.6327-1.8892-14.1693-11.7763-30.102-21.2855-53.4027,1.3225-3.9674-16.7513-43.5785-17.0662-54.0323-3.0228-2.0782-13.4137-31.6764-9.5722-50.128.63,9.7611-17.444,4.5972-29.22-8.9424-29.4722,11.0206-13.98,3.2117-26.3235-26.6384-30.8576,23.3637-9.7611,36.4-22.1042,18.2-37.659,22.671,7.0532,31.6764-19.4592,12.658-35.3918,19.0184,15.9326,44.46,17.1921,48.3646,3.5266,10.3909,11.7133,39.4222,10.1389,42.8229-6.5494,10.7687,16.3105,52.1431,13.8544,61.5264,3.8414C326.1559,183.4269,360.0993,188.5908,371.4348,166.9275Z" transform="translate(-126.538 -163.0395)"/><path class="cls-3" d="M390.0688,254.4644c5.92-5.1519,7.36-8.4156,8.0958-10.2393a12.44,12.44,0,0,0,1.0556-4.48,6.3943,6.3943,0,0,0-.8-2.9438c.2241-.32.4478-.64,1.4722-.64a6.7244,6.7244,0,0,1,3.1357.9282c1.9517-1.5361,3.3277-3.0717,3.3277-3.5517,0-.2564-.48-.2564-.6719-.2564a54.9315,54.9315,0,0,0-10.3032,1.792,18.391,18.391,0,0,0-2.7842.9922,3.0317,3.0317,0,0,1-.9917.2559c-.9922,0-4.2237-2.24-4.0957-4.7036a18.2721,18.2721,0,0,0,4.8.6079,81.2148,81.2148,0,0,0,13.5347-1.76,21.32,21.32,0,0,1,1.9521-.9282c.8638,0,4.5757,3.9038,4.5757,5.28,0,.6079-.416.7041-1.3443.896a30.2316,30.2316,0,0,0-7.1674,2.7837,29.6163,29.6163,0,0,0-1.6319,3.9677c-2.24,6.0157-5.8232,9.92-11.999,12.2871Z" transform="translate(-126.538 -163.0395)"/><path class="cls-3" d="M422.293,230.4663a13.2776,13.2776,0,0,1,1.792-.16c4.0634,0,6.8476,2.0156,6.8476,4.4155a2.0151,2.0151,0,0,1-1.9844,2.144c-1.0878,0-1.4716-.5761-2.5273-2.144a10.6664,10.6664,0,0,0-4.1924-3.9038Zm22.5586,3.2637c-1.4727,2.9438-5.1524,8.3511-14.335,15.2627a11.1759,11.1759,0,0,0-1.792,1.76,1.6809,1.6809,0,0,1-1.44.8,5.4356,5.4356,0,0,1-3.3272-1.44c-1.5683-1.28-1.6963-2.08-1.6963-3.0078a3.5365,3.5365,0,0,1,.6084-2.1441,6.7893,6.7893,0,0,0,3.4873,1.5362c1.0245,0,3.712-1.6958,4.8956-2.4322A80.11,80.11,0,0,0,444.5312,233.57Z" transform="translate(-126.538 -163.0395)"/><path class="cls-3" d="M455.3164,253.8564a29.9515,29.9515,0,0,0,7.7441-10.2392,10.8692,10.8692,0,0,0,1.0235-3.84,3.8478,3.8478,0,0,0-.3516-1.3437c-.48.0957-2.7842.5117-3.0078.5117-.4482,0-.7363-.2558-1.28-.8a18.1129,18.1129,0,0,1-7.7109,6.3994l-.2246-.2558c5.8242-6.7837,7.1035-11.0391,7.1035-13.1831a4.5848,4.5848,0,0,0-.5117-2.1758,1.5314,1.5314,0,0,1,1.0879-.3521c2.24,0,4.3193,2.8482,4.3193,3.4561,0,.48-.2236.7358-.832,1.4077a14.7151,14.7151,0,0,0-1.6319,2.24.3156.3156,0,0,0,.2559.0962,45.01,45.01,0,0,0,7.68-.64c.5439-.0957,3.168-.7681,3.36-.7681.7354,0,3.9678.8643,3.9678,2.6241a1.6631,1.6631,0,0,1-1.7285,1.44c-.3193,0-.4795-.064-1.792-.2559a16.07,16.07,0,0,0-3.0391-.2563c-.5761,0-.9287.0322-1.6005.064.416.5439.6084.768.6084,1.0878,0,.2242-.6719,1.0562-.7364,1.2481-1.3759,3.456-1.9834,4.9277-3.84,7.3594a19.4643,19.4643,0,0,1-8.7031,6.4638Z" transform="translate(-126.538 -163.0395)"/><path class="cls-3" d="M488.8525,239.2974c3.2,0,9.2471-.3521,12.6387-.5118.7363-.0322,3.9043-.2563,4.544-.2563.8964,0,3.872,0,3.872,2.1123,0,1.6-1.92,1.6-4.0322,1.6-4.1914,0-13.0547,0-16.7344.48-.5439.064-2.88.64-3.3594.64-1.44,0-3.6162-2.144-3.6162-4.2236a1.7982,1.7982,0,0,1,.128-.6724C484.0205,239.0732,484.6611,239.2974,488.8525,239.2974Z" transform="translate(-126.538 -163.0395)"/><path class="cls-3" d="M536.4678,242.9453a1.8271,1.8271,0,0,1-1.8242,1.92c-1.1836,0-1.6963-.768-3.52-3.36a10.712,10.712,0,0,0-3.2636-3.04c0,1.024.0634,4.064.0957,5.2481.0322,1.2475.288,6.8154.288,7.9673,0,1.792-.5761,3.1674-1.664,3.1674-1.5674,0-2.5918-2.8154-2.5918-3.7753,0-.48.32-2.56.3525-2.9761.2237-2.6875.2237-6.9112.2237-9.7593,0-7.0073-.2237-8.9272-1.7276-10.687a1.6336,1.6336,0,0,1,1.5352-.64c1.7285,0,4.416,1.4721,4.416,2.8159,0,.3838-.4805,1.92-.544,2.24a31.1383,31.1383,0,0,0-.3515,4.6719C534.58,238.4014,536.4678,241.1855,536.4678,242.9453Z" transform="translate(-126.538 -163.0395)"/><path class="cls-3" d="M221.647,247.8047c0,1.4189.43,1.5478,1.978,1.5478h18.834c1.376,0,2.1069-.5161,2.9668-4.9882a13.0041,13.0041,0,0,0,5.8911,2.4082c-1.4624,7.7827-3.7842,8.17-7.0523,8.17H221.4321c-1.7627,0-6.2778-.086-6.2778-5.59V231.3789c-.43.3008-.688.4727-1.4189.9458a20.0542,20.0542,0,0,0-4.6441-4.4722,26.6081,26.6081,0,0,0,12.3408-12.2973l6.3638.7309c.43.043.9033.2149.9033.6021,0,.4726-.3013.5586-.9033.7309-.2578.4727-.3008.6016-.4727.9029h13.0289l2.15,1.72c-.86,1.1182-1.462,1.8921-5.5469,6.3643h10.7925v17.3286h-6.5357v-1.0752H221.647Zm7.6543-21.1987c1.0317-1.419,1.2466-1.72,1.9345-2.795H223.582a34.7079,34.7079,0,0,1-2.58,2.795Zm-7.6543,10.8784h6.4072v-5.16H221.647Zm13.1582-5.16v5.16h6.4067v-5.16Z" transform="translate(-126.538 -163.0395)"/><path class="cls-3" d="M266.7109,255.63h-5.7187V247.16a23.8347,23.8347,0,0,1-3.5259,5.2456,38.2841,38.2841,0,0,0-4.644-3.9991,30.6746,30.6746,0,0,0,6.2348-9.7177h-5.2026v-5.16h7.1377v-2.9243l5.977.5591c.3438.0429.6451.1723.6451.43,0,.4731-.6021.645-.9034.7309v1.2041h6.6651v5.16h-5.6328a34.84,34.84,0,0,0,5.5039,7.0517,32.0625,32.0625,0,0,0-4.5581,4.2144,16.1756,16.1756,0,0,1-1.9781-2.8814Zm-8.8144-31.9058a25.7889,25.7889,0,0,1,2.6655,6.794,20.7309,20.7309,0,0,0-4.8159,1.935,26.9013,26.9013,0,0,0-2.58-7.0088Zm16.1675-3.3105a.9592.9592,0,0,1,.2578.5586c0,.2583-.2149.3442-.43.3442a2.8175,2.8175,0,0,1-1.419-.6021,65.1027,65.1027,0,0,1-16.77,2.6661A24.0651,24.0651,0,0,0,253.21,218.35a50.2391,50.2391,0,0,0,17.4575-2.4082Zm.7309,3.9126a3.2472,3.2472,0,0,1,.5161.3012,34.594,34.594,0,0,0,10.9649-8.8149l5.16,3.44c.2154.1289.5591.43.5591.731,0,.1289-.0859.43-.645.43a2.3307,2.3307,0,0,1-.86-.1724,48.0757,48.0757,0,0,1-12.47,10.019,15.0724,15.0724,0,0,0-4.042-4.3427,56.1072,56.1072,0,0,1-3.5259,6.4067,18.8421,18.8421,0,0,0-4.644-2.3647c.1719-.2583.3442-.6021.5161-.9034a30.8592,30.8592,0,0,0-4.2138,1.333,28.3233,28.3233,0,0,0-2.6661-6.2348l5.0738-1.376a21.7709,21.7709,0,0,1,2.4082,5.16,37.4752,37.4752,0,0,0,2.58-6.149ZM294.0586,241.44c.3013.2154.5161.3872.5161.6021s-.2578.43-.645.43a2.1415,2.1415,0,0,1-.7739-.1289,45.4579,45.4579,0,0,1-17.2427,13.4584,20.4417,20.4417,0,0,0-5.2031-5.332c6.665-2.1929,12.9428-5.7187,17.9306-12.77Zm-1.6338-11.3515a.8891.8891,0,0,1,.43.602c0,.1719-.0859.5586-.645.5586a3.6558,3.6558,0,0,1-.9458-.1719,48.9006,48.9006,0,0,1-13.0718,10.5347,26.5439,26.5439,0,0,0-4.5147-4.6435A40.9944,40.9944,0,0,0,287.05,226.7349Z" transform="translate(-126.538 -163.0395)"/><path class="cls-3" d="M307.5181,231.9805v14.061c0,1.0747,1.1611,2.064,2.3222,2.6231,1.7627.8168,2.2359,1.0747,11.3946,1.0747a120.4585,120.4585,0,0,0,15.7807-1.0318c-1.6767,3.0528-1.978,4.773-2.021,6.2349H315.0859a23.31,23.31,0,0,1-6.2778-.86,9.52,9.52,0,0,1-4.3428-2.709,43.4072,43.4072,0,0,1-4.3432,3.354c.0434.9029.0434,1.5049-.6016,1.5049-.1294,0-.43-.0859-.688-.602l-3.01-5.59a30.0062,30.0062,0,0,0,5.6328-2.8808V237.7h-4.6436v-5.7192Zm-6.4068-15.6084a38.9405,38.9405,0,0,1,6.149,6.02,58.7883,58.7883,0,0,0-4.6871,4.5576,41.0709,41.0709,0,0,0-5.8481-6.2778Zm17.4146-.5161,6.02.2148c.645.043.86.1724.86.4731,0,.2149-.43.6451-.86.9029v1.0752h10.8359v4.3857H324.5459v1.72h8.8579v14.8775h-8.8579v1.72h11.0508v4.644H324.5459v2.8379h-6.02V245.87h-9.7178v-4.644h9.7178v-1.72h-8.6426V224.6279h8.6426v-1.72H307.9912V218.522h10.5347Zm0,12.3837h-2.9238v1.9351h2.9238Zm0,5.418h-2.9238v1.9351h2.9238Zm6.02-3.4829h3.0527V228.24h-3.0527Zm0,5.418h3.0527v-1.9351h-3.0527Z" transform="translate(-126.538 -163.0395)"/><path class="cls-3" d="M353.5713,241.3115h-5.59v-6.751a24.5043,24.5043,0,0,1-4.8155,5.3321,10.3009,10.3009,0,0,0-4.687-3.397,30.1675,30.1675,0,0,0,7.7827-10.1479h-6.063V221.231h7.7828v-4.816l6.0629.086c.43,0,.731.2578.731.5591,0,.602-.8169.9028-1.2036,1.0317v3.1392h5.4609v5.1167h-4.7729a22.4516,22.4516,0,0,0,5.16,5.5039,14.1239,14.1239,0,0,0-3.3969,4.601,14.8387,14.8387,0,0,1-2.4507-2.4077Zm-3.999,3.5689c.3437.0859.602.2153.602.5161,0,.688-.9463.688-1.2041.645-2.15,4.8589-2.7519,6.1919-4.3857,8.2559a21.0137,21.0137,0,0,0-5.5469-2.1929,31.274,31.274,0,0,0,4.6006-9.03Zm6.9228,3.1391c0,1.9351.9028,2.021,2.15,2.021h4.3428c1.4189,0,3.1392,0,3.1392-4.4721,2.8808,2.1069,4.5146,2.3222,5.4179,2.4511-.3872,2.58-1.4619,7.0088-5.4179,7.0088H355.42c-3.5259,0-4.8589-1.8061-4.8589-4.73v-7.4819l5.8911.3442c-.1718-.2153-.3442-.43-.4731-.559l4.2139-3.1392V217.3608h17.7588v23.4346H361.44a36.3136,36.3136,0,0,1,3.7413,4.3433,16.3566,16.3566,0,0,0-4.6441,3.6118,44.4745,44.4745,0,0,0-3.0962-4.4292,8.0746,8.0746,0,0,1-.9458.3872Zm15.5225-23.6928v-2.15h-5.8047v2.15Zm0,5.8911v-2.1929h-5.8047v2.1929Zm0,6.1059v-2.4082h-5.8047v2.4082Zm1.72,5.5039a39.9515,39.9515,0,0,1,6.5791,8.2989,18.5233,18.5233,0,0,0-4.9453,3.4829,51.9236,51.9236,0,0,0-6.2349-8.6431Z" transform="translate(-126.538 -163.0395)"/></svg>